<svg xmlns="http://www.w3.org/2000/svg" width="24" height="24" viewBox="0 0 24 24" fill="none">
    <path d="M12.002 6.00195V22.002M12.002 6.00195H8.46624C7.94528 6.00195 7.44565 5.79124 7.07728 5.41617C6.7089 5.04109 6.50195 4.53239 6.50195 4.00195C6.50195 3.47152 6.7089 2.96281 7.07728 2.58774C7.44565 2.21267 7.94528 2.00195 8.46624 2.00195C11.2162 2.00195 12.002 6.00195 12.002 6.00195ZM12.002 6.00195H15.5377C16.0586 6.00195 16.5583 5.79124 16.9266 5.41617C17.295 5.04109 17.502 4.53239 17.502 4.00195C17.502 3.47152 17.295 2.96281 16.9266 2.58774C16.5583 2.21267 16.0586 2.00195 15.5377 2.00195C12.7877 2.00195 12.002 6.00195 12.002 6.00195ZM20.002 11.002V18.802C20.002 19.9221 20.002 20.4821 19.784 20.9099C19.5922 21.2863 19.2863 21.5922 18.9099 21.784C18.4821 22.002 17.9221 22.002 16.802 22.002L7.20195 22.002C6.08185 22.002 5.5218 22.002 5.09397 21.784C4.71765 21.5922 4.41169 21.2863 4.21994 20.9099C4.00195 20.4821 4.00195 19.9221 4.00195 18.802V11.002M2.00195 7.60195L2.00195 9.40195C2.00195 9.96201 2.00195 10.242 2.11095 10.4559C2.20682 10.6441 2.3598 10.7971 2.54796 10.893C2.76187 11.002 3.0419 11.002 3.60195 11.002L20.402 11.002C20.962 11.002 21.242 11.002 21.4559 10.893C21.6441 10.7971 21.7971 10.6441 21.893 10.4559C22.002 10.242 22.002 9.96201 22.002 9.40195V7.60195C22.002 7.0419 22.002 6.76187 21.893 6.54796C21.7971 6.3598 21.6441 6.20682 21.4559 6.11095C21.242 6.00195 20.962 6.00195 20.402 6.00195L3.60195 6.00195C3.0419 6.00195 2.76187 6.00195 2.54796 6.11095C2.3598 6.20682 2.20682 6.3598 2.11095 6.54796C2.00195 6.76187 2.00195 7.0419 2.00195 7.60195Z" stroke="#1E358A" stroke-width="1.5" stroke-linecap="round" stroke-linejoin="round"/>
</svg>