<svg xmlns="http://www.w3.org/2000/svg" width="24" height="24" viewBox="0 0 24 24" fill="none">
    <path d="M14.002 2.27148V6.40203C14.002 6.96208 14.002 7.2421 14.1109 7.45601C14.2068 7.64418 14.3598 7.79716 14.548 7.89303C14.7619 8.00202 15.0419 8.00202 15.602 8.00202H19.7325M16.002 13.002H8.00195M16.002 17.002H8.00195M10.002 9.00195H8.00195M14.002 2.00195H8.80195C7.1218 2.00195 6.28172 2.00195 5.63998 2.32893C5.0755 2.61655 4.61655 3.0755 4.32893 3.63998C4.00195 4.28172 4.00195 5.1218 4.00195 6.80195V17.202C4.00195 18.8821 4.00195 19.7222 4.32893 20.3639C4.61655 20.9284 5.0755 21.3874 5.63998 21.675C6.28172 22.002 7.1218 22.002 8.80195 22.002H15.202C16.8821 22.002 17.7222 22.002 18.3639 21.675C18.9284 21.3874 19.3874 20.9284 19.675 20.3639C20.002 19.7222 20.002 18.8821 20.002 17.202V8.00195L14.002 2.00195Z" stroke="#1E358A" stroke-width="1.5" stroke-linecap="round" stroke-linejoin="round"/>
</svg>