<svg xmlns="http://www.w3.org/2000/svg" width="24" height="24" viewBox="0 0 24 24" fill="none">
    <path d="M2.00195 13.502L4.00195 12.002M22.002 13.502L20.002 12.002M12.002 6.50195V1.75195M12.002 6.50195C11.5797 6.50195 11.1575 6.63529 10.802 6.90195L4.00195 12.002M12.002 6.50195C12.4242 6.50195 12.8464 6.63529 13.202 6.90195L20.002 12.002M10.002 3.75195L14.002 3.75195M4.00195 12.002V20.252C4.00195 21.3565 4.89738 22.252 6.00195 22.252H9.00195M20.002 12.002V20.252C20.002 21.3565 19.1065 22.252 18.002 22.252H15.002M9.00195 22.252V15.002C9.00195 14.4497 9.44967 14.002 10.002 14.002H14.002C14.5542 14.002 15.002 14.4497 15.002 15.002V22.252M9.00195 22.252H15.002" stroke="#1E358A" stroke-width="1.5" stroke-linecap="round"/>
</svg>